<svg width="38" height="38" viewBox="0 0 38 38" fill="none" xmlns="http://www.w3.org/2000/svg">
<path d="M0.625 19C0.625 22.6342 1.70268 26.1869 3.72175 29.2086C5.74082 32.2304 8.6106 34.5855 11.9682 35.9763C15.3258 37.3671 19.0204 37.7309 22.5848 37.0219C26.1492 36.3129 29.4233 34.5629 31.9931 31.9931C34.5629 29.4233 36.3129 26.1492 37.0219 22.5848C37.7309 19.0204 37.3671 15.3258 35.9763 11.9682C34.5855 8.6106 32.2304 5.74082 29.2086 3.72175C26.1869 1.70268 22.6342 0.625 19 0.625C14.1266 0.625 9.45289 2.56093 6.00691 6.00691C2.56093 9.45289 0.625 14.1266 0.625 19ZM8.5 17.6875H24.4469L17.1231 10.3283L19 8.5L29.5 19L19 29.5L17.1231 27.6271L24.4469 20.3125H8.5V17.6875Z" fill="#CD2177"/>
</svg>
