<svg width="24" height="28" viewBox="0 0 24 28" fill="none" xmlns="http://www.w3.org/2000/svg">
<path d="M7.25 3.12873H7C7.1375 3.12873 7.25 3.00942 7.25 2.86358V3.12873H16.75V2.86358C16.75 3.00942 16.8625 3.12873 17 3.12873H16.75V5.5151H19V2.86358C19 1.6936 18.1031 0.742371 17 0.742371H7C5.89687 0.742371 5 1.6936 5 2.86358V5.5151H7.25V3.12873ZM23 5.5151H1C0.446875 5.5151 0 5.98906 0 6.5757V7.63631C0 7.78214 0.1125 7.90146 0.25 7.90146H2.1375L2.90938 25.2357C2.95938 26.366 3.84063 27.2575 4.90625 27.2575H19.0938C20.1625 27.2575 21.0406 26.3693 21.0906 25.2357L21.8625 7.90146H23.75C23.8875 7.90146 24 7.78214 24 7.63631V6.5757C24 5.98906 23.5531 5.5151 23 5.5151ZM18.8531 24.8712H5.14688L4.39062 7.90146H19.6094L18.8531 24.8712Z" fill="#CD2177"/>
</svg>
