<svg width="32" height="32" viewBox="0 0 32 32" fill="none" xmlns="http://www.w3.org/2000/svg">
<path d="M16.8944 7.13086H15.1095C14.9462 7.13086 14.8126 7.26446 14.8126 7.42774V17.6439C14.8126 17.7404 14.8571 17.8295 14.9351 17.8852L21.0692 22.3643C21.2028 22.4607 21.3884 22.4348 21.4849 22.3012L22.5462 20.8539C22.6464 20.7166 22.6167 20.5311 22.4831 20.4383L17.1913 16.6123V7.42774C17.1913 7.26446 17.0577 7.13086 16.8944 7.13086ZM25.0511 9.92149L30.8698 11.3428C31.0554 11.3873 31.2372 11.2463 31.2372 11.057L31.2669 5.06387C31.2669 4.81524 30.9811 4.67422 30.7882 4.83008L24.9397 9.39825C24.8955 9.43244 24.8619 9.47842 24.8427 9.53088C24.8234 9.58335 24.8194 9.64018 24.831 9.69484C24.8426 9.7495 24.8695 9.79977 24.9084 9.83987C24.9473 9.87996 24.9968 9.90825 25.0511 9.92149ZM31.2743 21.0951L29.1702 20.3715C29.0968 20.3463 29.0166 20.3509 28.9465 20.3842C28.8765 20.4175 28.8222 20.4769 28.7954 20.5496C28.7249 20.7389 28.6507 20.9244 28.5727 21.11C27.9122 22.6723 26.9659 24.0787 25.7561 25.2848C24.5598 26.4848 23.142 27.4414 21.5813 28.1014C19.9646 28.7849 18.2267 29.1358 16.4714 29.133C14.6976 29.133 12.9794 28.7879 11.3614 28.1014C9.80075 27.4414 8.38295 26.4848 7.18661 25.2848C5.98056 24.0787 5.03427 22.6723 4.37001 21.11C3.69023 19.4923 3.34195 17.7547 3.34579 16C3.34579 14.2262 3.69091 12.5043 4.37744 10.8863C5.03798 9.32403 5.98427 7.91758 7.19404 6.71153C8.39037 5.51148 9.80817 4.55494 11.3688 3.89493C12.9794 3.2084 14.7013 2.86329 16.4751 2.86329C18.2489 2.86329 19.9671 3.2084 21.5851 3.89493C23.1457 4.55494 24.5635 5.51148 25.7599 6.71153C26.1384 7.09375 26.4946 7.49082 26.8212 7.91016L29.0403 6.17344C26.1198 2.44024 21.5739 0.0392621 16.4677 0.042973C7.57626 0.046684 0.43642 7.26817 0.525482 16.1633C0.614545 24.9025 7.72099 31.957 16.4751 31.957C23.3589 31.957 29.2222 27.593 31.4561 21.4811C31.5118 21.3252 31.4302 21.1508 31.2743 21.0951Z" fill="#374E85"/>
</svg>
