<svg width="36" height="36" viewBox="0 0 36 36" fill="none" xmlns="http://www.w3.org/2000/svg">
<path d="M18 0C8.05982 0 0 8.05982 0 18C0 27.9402 8.05982 36 18 36C27.9402 36 36 27.9402 36 18C36 8.05982 27.9402 0 18 0ZM25.7143 18.9643C25.7143 19.1411 25.5696 19.2857 25.3929 19.2857H19.2857V25.3929C19.2857 25.5696 19.1411 25.7143 18.9643 25.7143H17.0357C16.8589 25.7143 16.7143 25.5696 16.7143 25.3929V19.2857H10.6071C10.4304 19.2857 10.2857 19.1411 10.2857 18.9643V17.0357C10.2857 16.8589 10.4304 16.7143 10.6071 16.7143H16.7143V10.6071C16.7143 10.4304 16.8589 10.2857 17.0357 10.2857H18.9643C19.1411 10.2857 19.2857 10.4304 19.2857 10.6071V16.7143H25.3929C25.5696 16.7143 25.7143 16.8589 25.7143 17.0357V18.9643Z" fill="#CD2177"/>
</svg>
