<svg width="32" height="33" viewBox="0 0 32 33" fill="none" xmlns="http://www.w3.org/2000/svg">
<path d="M30.6853 19.534C30.2384 19.3947 29.7546 19.4377 29.3392 19.6538C28.9239 19.8699 28.6108 20.2416 28.4682 20.6877C27.6302 23.2516 25.9966 25.481 23.805 27.0516C21.6134 28.6221 18.9782 29.452 16.2827 29.4204C12.9488 29.4583 9.73583 28.1716 7.34847 25.8425C4.96111 23.5134 3.59418 20.332 3.54744 16.9959C3.59418 13.6598 4.96111 10.4784 7.34847 8.14927C9.73583 5.82018 12.9488 4.53353 16.2827 4.57145C19.2938 4.56418 22.2121 5.61299 24.5305 7.53557L20.6816 6.8966C20.4509 6.85862 20.215 6.86664 19.9874 6.92021C19.7598 6.97378 19.5451 7.07184 19.3555 7.20875C19.166 7.34566 19.0053 7.51871 18.8828 7.71797C18.7603 7.91722 18.6784 8.13874 18.6418 8.36978C18.6038 8.60062 18.6118 8.83668 18.6654 9.0644C18.7189 9.29212 18.8169 9.50701 18.9537 9.6967C19.0905 9.88639 19.2635 10.0471 19.4626 10.1697C19.6617 10.2923 19.8831 10.3743 20.114 10.4109L27.6345 11.6534H27.9361C28.1417 11.6531 28.3458 11.6171 28.5391 11.5469C28.6041 11.5222 28.6642 11.4862 28.7165 11.4404C28.8437 11.3931 28.9632 11.3273 29.0712 11.2452L29.2309 11.0499C29.2309 10.9612 29.3905 10.8902 29.4615 10.7837C29.5324 10.6772 29.4615 10.6062 29.5501 10.5352C29.5992 10.4318 29.6407 10.325 29.6743 10.2157L31.0046 3.11602C31.0489 2.88293 31.0468 2.6434 30.9985 2.41111C30.9503 2.17882 30.8568 1.95832 30.7234 1.76218C30.59 1.56605 30.4193 1.39814 30.221 1.26802C30.0227 1.13791 29.8008 1.04815 29.5679 1.00386C29.335 0.959574 29.0956 0.961631 28.8635 1.00991C28.6313 1.0582 28.411 1.15176 28.215 1.28526C27.8191 1.55488 27.5465 1.97081 27.4572 2.44155L26.9783 5.01518C24.009 2.4402 20.2118 1.02237 16.2827 1.02161C12.008 0.983746 7.89275 2.64441 4.84013 5.63921C1.78751 8.63401 0.04681 12.7183 0 16.9959C0.04681 21.2735 1.78751 25.3578 4.84013 28.3526C7.89275 31.3474 12.008 33.0081 16.2827 32.9702C19.7471 33.0235 23.1369 31.9623 25.9533 29.9428C28.7696 27.9234 30.8636 25.0525 31.9269 21.7527C31.9942 21.5254 32.0153 21.287 31.989 21.0515C31.9627 20.8159 31.8896 20.588 31.7739 20.3813C31.6581 20.1745 31.5022 19.993 31.3152 19.8475C31.1283 19.7019 30.9141 19.5954 30.6853 19.534Z" fill="#CD2177"/>
</svg>
